<svg 
class="flex-shrink-0   transition duration-75 text-[#fff] group-hover:text-white" width="25px" height="25px"
viewBox="0 0 21 21" xmlns="http://www.w3.org/2000/svg" fill="currentColor">
    <g id="SVGRepo_bgCarrier" stroke-width="0"></g>
    <g id="SVGRepo_tracerCarrier" stroke-linecap="round" stroke-linejoin="round"></g>
    <g id="SVGRepo_iconCarrier">
        <g fill="none" fill-rule="evenodd" stroke="currentColor" stroke-linecap="round" stroke-linejoin="round"
            transform="translate(3 3)">
            <path
                d="m.5 12.5v-10c0-1.1045695.8954305-2 2-2h10c1.1045695 0 2 .8954305 2 2v10c0 1.1045695-.8954305 2-2 2h-10c-1.1045695 0-2-.8954305-2-2z">
            </path>
            <path
                d="m12.5 12.5v-10c0-1.1045695-.8954305-2-2-2h2c1 0 2 .8954305 2 2v10c0 1.1045695-1 2-2 2h-2c1.1045695 0 2-.8954305 2-2z"
                fill="currentColor"></path>
            <path d="m7.5 10.5 3-3-3-3"></path>
            <path d="m10.5 7.5h-8"></path>
        </g>
    </g>
</svg>